<?xml version="1.0" encoding="UTF-8"?>
<svg xmlns="http://www.w3.org/2000/svg" xmlns:xlink="http://www.w3.org/1999/xlink" width="296px" height="152px" viewBox="0 0 296 152" version="1.1">
<defs>
<linearGradient id="linear0" gradientUnits="userSpaceOnUse" x1="584.07" y1="491.88" x2="584.07" y2="281.4" gradientTransform="matrix(0.84,0,0,-0.84,17.4,843.33)">
<stop offset="0" style="stop-color:rgb(29.019608%,74.901961%,100%);stop-opacity:1;"/>
<stop offset="1" style="stop-color:rgb(0%,0%,79.607843%);stop-opacity:1;"/>
</linearGradient>
<linearGradient id="linear1" gradientUnits="userSpaceOnUse" x1="579.11" y1="489.59" x2="579.11" y2="277.03" gradientTransform="matrix(0.84,0,0,-0.84,17.4,843.33)">
<stop offset="0" style="stop-color:rgb(29.019608%,74.901961%,100%);stop-opacity:1;"/>
<stop offset="1" style="stop-color:rgb(0%,0%,79.607843%);stop-opacity:1;"/>
</linearGradient>
</defs>
<g id="surface1">
<path style="fill-rule:nonzero;fill:url(#linear0);stroke-width:3.82;stroke-linecap:butt;stroke-linejoin:round;stroke:rgb(0%,0%,0%);stroke-opacity:1;stroke-miterlimit:4;" d="M 627.659299 398.152751 C 626.312575 398.134715 625.01667 398.657749 624.068034 399.607626 C 623.119398 400.563516 622.58579 401.856071 622.60273 403.202733 L 622.60273 403.587493 C 622.58579 404.934155 623.119398 406.22671 624.068034 407.176587 C 625.01667 408.132477 626.312575 408.65551 627.659299 408.637475 L 812.999054 408.637475 C 814.345778 408.65551 815.641682 408.132477 816.590318 407.176587 C 817.547424 406.22671 818.072562 404.934155 818.064092 403.587493 L 818.064092 403.202733 C 818.072562 401.856071 817.547424 400.563516 816.590318 399.607626 C 815.641682 398.657749 814.345778 398.134715 812.999054 398.152751 Z M 211.360563 398.327095 C 210.013839 398.315072 208.717934 398.838105 207.769298 399.787983 C 206.812193 400.743872 206.287055 402.036427 206.303995 403.377077 C 206.303995 404.717727 206.837602 405.998258 207.786238 406.936112 C 208.734874 407.873966 210.022309 408.396999 211.360563 408.378964 L 448.866827 408.378964 C 450.205081 408.390988 451.492516 407.873966 452.441152 406.936112 C 453.389788 405.992246 453.923395 404.717727 453.923395 403.377077 C 453.931865 402.036427 453.406727 400.743872 452.458091 399.793995 C 451.509456 398.844117 450.213551 398.315072 448.866827 398.327095 Z M 208.108097 582.849821 C 205.313009 582.849821 203.051528 584.7616 203.051528 587.142306 C 203.051528 589.517 205.313009 591.428778 208.108097 591.428778 L 813.058343 591.428778 C 815.861901 591.428778 818.123382 589.510988 818.123382 587.142306 C 818.123382 584.767612 815.861901 582.849821 813.058343 582.849821 Z M 208.108097 582.849821 " transform="matrix(0.461188,0,0,0.649755,-82.594248,-249.186045)"/>
<path style="fill-rule:nonzero;fill:rgb(100%,100%,100%);fill-opacity:1;stroke-width:3.82;stroke-linecap:butt;stroke-linejoin:miter;stroke:rgb(0%,0%,0%);stroke-opacity:1;stroke-miterlimit:4;" d="M 356.628918 399.361139 C 349.878356 399.709829 343.204024 406.358971 350.547483 417.360717 L 323.06245 444.137644 L 333.243347 456.462004 L 360.550511 428.458653 C 378.549185 438.702902 385.477615 410.459075 365.928938 410.988121 C 367.174023 402.661663 361.871825 399.102628 356.628918 399.361139 Z M 201.628574 401.15268 C 196.783755 401.411191 192.320084 405.042369 193.480469 412.767638 C 173.931792 412.280676 180.851753 440.482419 198.833486 430.250194 L 226.149121 458.247534 L 236.330017 446.001328 L 208.828044 419.218389 C 216.586531 407.561348 208.709464 400.761908 201.628574 401.15268 Z M 225.420704 541.78866 L 198.130479 569.792011 C 180.131806 559.559786 173.211845 587.791589 192.760522 587.292603 C 189.906144 606.290153 221.211131 600.440591 208.133507 580.847864 L 235.601601 554.082961 Z M 333.243347 543.207465 L 323.06245 555.537837 L 350.547483 582.308752 C 337.478329 601.889455 368.783316 607.751041 365.928938 588.717419 C 385.477615 589.210394 378.532245 560.990615 360.550511 571.22284 Z M 333.243347 543.207465 " transform="matrix(0.461188,0,0,0.649755,-82.594248,-249.186045)"/>
<path style="fill-rule:nonzero;fill:rgb(0%,5.098039%,50.980392%);fill-opacity:1;stroke-width:1.91;stroke-linecap:butt;stroke-linejoin:miter;stroke:rgb(0%,0%,0%);stroke-opacity:1;stroke-miterlimit:4;" d="M 515.449215 389.471592 L 522.995953 389.471592 C 522.995953 390.601826 522.995953 391.960511 522.995953 393.018603 C 523.199232 409.142473 514.339649 418.929819 493.723757 418.502975 L 493.723757 411.180501 C 506.792911 410.897943 515.381455 407.110457 515.432275 393.018603 C 515.483094 391.900392 515.500034 390.722063 515.449215 389.471592 Z M 515.449215 389.471592 " transform="matrix(0.461188,0,0,0.649755,-82.594248,-249.186045)"/>
<path style="fill-rule:nonzero;fill:rgb(0%,5.098039%,50.980392%);fill-opacity:1;stroke-width:1.91;stroke-linecap:butt;stroke-linejoin:miter;stroke:rgb(0%,0%,0%);stroke-opacity:1;stroke-miterlimit:4;" d="M 524.918634 385.678094 L 524.918634 412.07026 C 525.121914 415.671378 527.993231 418.55107 531.601436 418.761486 L 553.411594 418.761486 L 553.411594 411.757642 L 534.650623 411.757642 C 533.397068 411.757642 533.04133 410.988121 533.10909 409.028247 L 533.10909 398.940307 L 553.996021 398.940307 L 553.996021 390.830277 L 551.107763 390.830277 C 550.624975 391.768131 549.66787 392.357296 548.609124 392.357296 C 547.558848 392.357296 546.593273 391.768131 546.110485 390.830277 L 533.10909 390.830277 L 533.10909 385.678094 Z M 524.918634 385.678094 " transform="matrix(0.461188,0,0,0.649755,-82.594248,-249.186045)"/>
<path style="fill-rule:nonzero;fill:rgb(0%,5.098039%,50.980392%);fill-opacity:1;stroke-width:1.91;stroke-linecap:butt;stroke-linejoin:miter;stroke:rgb(0%,0%,0%);stroke-opacity:1;stroke-miterlimit:4;" d="M 554.37717 395.621748 L 554.37717 404.200705 L 584.259203 404.200705 L 584.259203 395.621748 Z M 554.37717 395.621748 " transform="matrix(0.461188,0,0,0.649755,-82.594248,-249.186045)"/>
<path style="fill-rule:nonzero;fill:rgb(0%,5.098039%,50.980392%);fill-opacity:1;stroke-width:1.91;stroke-linecap:butt;stroke-linejoin:miter;stroke:rgb(0%,0%,0%);stroke-opacity:1;stroke-miterlimit:4;" d="M 548.643004 384.487741 C 545.881796 384.487741 543.645725 386.718149 543.637255 389.471592 C 543.628785 392.231046 545.856386 394.473478 548.609124 394.491514 C 551.361862 394.50955 553.614873 392.297177 553.640283 389.537722 C 553.657223 388.203084 553.132085 386.922553 552.191919 385.972676 C 551.251753 385.022798 549.972788 384.487741 548.643004 384.487741 Z M 548.643004 386.652019 C 549.811859 386.627971 550.879074 387.319338 551.344922 388.401477 C 551.81077 389.477604 551.573611 390.728075 550.752025 391.563727 C 549.930438 392.399379 548.685354 392.65789 547.592728 392.21301 C 546.508573 391.768131 545.797096 390.716051 545.797096 389.537722 C 545.797096 387.962609 547.059121 386.670054 548.643004 386.652019 Z M 548.643004 386.652019 " transform="matrix(0.461188,0,0,0.649755,-82.594248,-249.186045)"/>
<path style="fill-rule:nonzero;fill:rgb(0%,5.098039%,50.980392%);fill-opacity:1;stroke-width:1.91;stroke-linecap:butt;stroke-linejoin:miter;stroke:rgb(0%,0%,0%);stroke-opacity:1;stroke-miterlimit:4;" d="M 461.563303 385.437618 L 461.563303 400.329052 L 469.126981 400.329052 L 469.126981 393.259078 L 482.628104 393.259078 C 482.687393 410.392945 471.63409 411.433 462.952377 411.433 L 462.952377 419.001961 C 468.669603 419.001961 490.46282 419.537019 490.327301 393.247054 C 490.327301 390.607838 490.327301 388.070823 490.327301 385.431606 Z M 461.563303 385.437618 " transform="matrix(0.461188,0,0,0.649755,-82.594248,-249.186045)"/>
<path style="fill-rule:nonzero;fill:rgb(0%,5.098039%,50.980392%);fill-opacity:1;stroke-width:1.91;stroke-linecap:butt;stroke-linejoin:miter;stroke:rgb(0%,0%,0%);stroke-opacity:1;stroke-miterlimit:4;" d="M 492.233043 385.437618 L 492.233043 392.760092 L 509.892918 392.760092 L 509.892918 385.437618 Z M 492.233043 385.437618 " transform="matrix(0.461188,0,0,0.649755,-82.594248,-249.186045)"/>
<path style="fill-rule:nonzero;fill:rgb(0%,5.098039%,50.980392%);fill-opacity:1;stroke-width:1.91;stroke-linecap:butt;stroke-linejoin:miter;stroke:rgb(0%,0%,0%);stroke-opacity:1;stroke-miterlimit:4;" d="M 586.766312 387.782253 L 609.702975 387.782253 L 609.702975 394.918358 C 609.728385 398.050549 608.999968 401.140657 607.560074 403.918147 C 609.609805 407.747716 612.083035 410.302766 614.607084 411.511155 L 614.607084 419.182318 C 610.83795 417.667323 607.026466 416.098222 603.994219 409.719614 C 598.607322 416.801612 591.805941 419.248448 584.538712 418.719403 L 584.538712 411.402941 C 585.800736 411.402941 585.690627 411.402941 587.36768 411.402941 C 591.373973 411.402941 602.452686 403.082495 601.758149 394.888298 L 586.757842 394.888298 Z M 586.766312 387.782253 " transform="matrix(0.461188,0,0,0.649755,-82.594248,-249.186045)"/>
<path style="fill-rule:nonzero;fill:rgb(75.294118%,30.196078%,0%);fill-opacity:1;stroke-width:3.82;stroke-linecap:butt;stroke-linejoin:miter;stroke:rgb(0%,0%,0%);stroke-opacity:1;stroke-miterlimit:4;" d="M 382.547008 582.062265 C 386.095923 579.362929 428.132355 557.467651 456.760833 582.062265 C 476.41115 598.931608 491.851895 591.909729 491.851895 591.909729 L 513.551943 591.398719 C 499.339343 600.398508 482.441764 613.077569 448.18076 587.869744 C 435.628273 578.629479 418.891624 575.353003 401.739946 582.062265 Z M 382.547008 582.062265 " transform="matrix(0.461188,0,0,0.649755,-82.594248,-249.186045)"/>
<path style="fill:none;stroke-width:3.82;stroke-linecap:butt;stroke-linejoin:miter;stroke:rgb(0%,0%,0%);stroke-opacity:1;stroke-miterlimit:4;" d="M 397.996222 575.250801 C 397.682834 575.491276 398.182561 574.330983 397.750593 576.507285 " transform="matrix(0.461188,0,0,0.649755,-82.594248,-249.186045)"/>
<path style="fill:none;stroke-width:3.82;stroke-linecap:butt;stroke-linejoin:miter;stroke:rgb(0%,0%,0%);stroke-opacity:1;stroke-miterlimit:4;" d="M 397.699774 582.062265 L 398.199501 575.749787 " transform="matrix(0.461188,0,0,0.649755,-82.594248,-249.186045)"/>
<path style="fill:none;stroke-width:3.82;stroke-linecap:butt;stroke-linejoin:miter;stroke:rgb(0%,0%,0%);stroke-opacity:1;stroke-miterlimit:4;" d="M 406.533946 571.998372 L 407.287773 581.082328 " transform="matrix(0.461188,0,0,0.649755,-82.594248,-249.186045)"/>
<path style="fill:none;stroke-width:3.82;stroke-linecap:butt;stroke-linejoin:miter;stroke:rgb(0%,0%,0%);stroke-opacity:1;stroke-miterlimit:4;" d="M 416.376044 579.290787 L 416.875772 570.958317 " transform="matrix(0.461188,0,0,0.649755,-82.594248,-249.186045)"/>
<path style="fill:none;stroke-width:3.82;stroke-linecap:butt;stroke-linejoin:miter;stroke:rgb(0%,0%,0%);stroke-opacity:1;stroke-miterlimit:4;" d="M 425.210217 570.699806 L 424.44792 578.779776 " transform="matrix(0.461188,0,0,0.649755,-82.594248,-249.186045)"/>
<path style="fill:none;stroke-width:3.82;stroke-linecap:butt;stroke-linejoin:miter;stroke:rgb(0%,0%,0%);stroke-opacity:1;stroke-miterlimit:4;" d="M 437.330736 571.709802 L 432.028538 579.789773 " transform="matrix(0.461188,0,0,0.649755,-82.594248,-249.186045)"/>
<path style="fill:none;stroke-width:3.82;stroke-linecap:butt;stroke-linejoin:miter;stroke:rgb(0%,0%,0%);stroke-opacity:1;stroke-miterlimit:4;" d="M 439.346587 582.062265 L 446.410537 576.260797 " transform="matrix(0.461188,0,0,0.649755,-82.594248,-249.186045)"/>
<path style="fill:none;stroke-width:3.82;stroke-linecap:butt;stroke-linejoin:miter;stroke:rgb(0%,0%,0%);stroke-opacity:1;stroke-miterlimit:4;" d="M 454.490883 580.799769 L 446.918735 585.849751 " transform="matrix(0.461188,0,0,0.649755,-82.594248,-249.186045)"/>
<path style="fill:none;stroke-width:3.82;stroke-linecap:butt;stroke-linejoin:miter;stroke:rgb(0%,0%,0%);stroke-opacity:1;stroke-miterlimit:4;" d="M 456.997992 593.418712 L 465.078338 587.112246 " transform="matrix(0.461188,0,0,0.649755,-82.594248,-249.186045)"/>
<path style="fill:none;stroke-width:3.82;stroke-linecap:butt;stroke-linejoin:miter;stroke:rgb(0%,0%,0%);stroke-opacity:1;stroke-miterlimit:4;" d="M 473.421253 600.001724 L 479.477277 593.19026 " transform="matrix(0.461188,0,0,0.649755,-82.594248,-249.186045)"/>
<path style="fill:none;stroke-width:3.82;stroke-linecap:butt;stroke-linejoin:miter;stroke:rgb(0%,0%,0%);stroke-opacity:1;stroke-miterlimit:4;" d="M 486.287128 592.661214 L 486.287128 603.001653 " transform="matrix(0.461188,0,0,0.649755,-82.594248,-249.186045)"/>
<path style="fill:none;stroke-width:3.82;stroke-linecap:butt;stroke-linejoin:miter;stroke:rgb(0%,0%,0%);stroke-opacity:1;stroke-miterlimit:4;" d="M 496.137696 591.398719 L 495.629499 599.47869 " transform="matrix(0.461188,0,0,0.649755,-82.594248,-249.186045)"/>
<path style="fill-rule:nonzero;fill:url(#linear1);stroke-width:3.82;stroke-linecap:round;stroke-linejoin:round;stroke:rgb(0%,0%,0%);stroke-opacity:1;stroke-miterlimit:4;" d="M 793.509666 418.340654 L 798.066507 423.637123 C 721.87918 441.408249 716.814141 549.501906 797.549839 571.060519 L 794.000924 577.348948 L 813.998509 571.818016 L 800.116238 558.441576 L 799.353941 565.247028 C 763.771622 549.850595 756.191004 511.440675 756.191004 499.627324 L 774.630116 499.627324 L 774.630116 509.468777 C 774.630116 513.472691 780.931769 513.622988 780.931769 509.468777 L 780.931769 500.132323 L 786.733695 500.132323 C 788.563207 510.262346 801.242743 514.560842 807.502047 507.292475 C 809.602598 504.851651 810.983202 501.11226 810.983202 495.839838 C 810.983202 490.122537 809.399319 486.088564 807.053139 483.539526 C 800.683726 476.661931 788.656377 480.677869 787.047084 491.541342 L 780.982589 491.541342 L 780.982589 482.709886 C 780.982589 478.002581 774.680936 478.501568 774.680936 482.709886 L 774.680936 491.288843 L 756.148654 491.288843 C 759.680629 461.457879 777.154165 443.289969 800.836185 430.202099 L 800.836185 437.272074 L 813.193863 423.631111 Z M 279.103336 420.619158 C 234.771544 420.62517 198.833486 456.564206 198.841956 500.895832 C 198.841956 545.227457 234.780014 581.160482 279.111806 581.160482 C 323.443598 581.160482 359.381656 545.221445 359.381656 500.88982 C 359.356246 456.564206 323.426658 420.637193 279.103336 420.619158 Z M 360.296412 424.731286 C 362.659532 427.322407 365.41227 429.540792 365.649429 435.432437 C 367.436592 478.279128 369.240694 520.42844 362.447783 565.367265 C 361.888765 569.040526 358.568539 572.371109 355.646402 572.858072 L 386.7227 572.858072 C 384.241001 559.649965 385.172697 546.44787 387.442647 533.239763 C 390.169975 546.814594 394.227088 560.08282 399.563166 572.858072 L 419.560751 572.858072 C 414.029864 512.120017 417.926048 430.857394 421.712122 424.731286 L 394.930095 424.731286 C 397.233926 442.658721 394.675996 448.730723 393.490201 457.910868 C 390.762873 448.778818 388.433633 442.442293 388.137184 424.731286 Z M 423.490814 424.731286 C 430.580174 430.232159 430.622524 457.928904 430.622524 496.110373 C 430.622524 533.107501 432.697665 568.439338 419.899549 572.858072 L 484.169637 572.858072 L 484.169637 546.00299 C 473.463602 560.569783 446.850975 554.341472 446.850975 536.432072 C 446.850975 517.909461 447.028844 499.651372 447.028844 499.651372 C 461.029695 496.152456 468.940642 506.589085 471.6595 511.801388 L 471.303762 480.04061 C 465.501836 491.252771 452.398802 493.80181 446.673106 493.57937 C 446.673106 493.57937 446.901795 464.3015 447.028844 458.247534 C 447.537042 434.879344 481.823457 434.698988 484.533846 453.961061 L 484.533846 424.731286 Z M 503.091537 424.731286 C 504.66695 425.422652 506.022144 429.997695 506.572692 435.101784 C 507.987176 448.520307 508.080346 471.317367 508.080346 498.611316 C 508.080346 524.829138 506.369413 549.29149 504.590721 562.872334 C 503.811484 568.872193 501.482244 570.868138 499.517212 572.870095 L 532.727941 572.870095 C 524.596776 570.597604 525.511532 536.672548 525.731751 531.652625 C 537.970849 531.652625 559.476088 526.30205 559.476088 510.202227 C 559.476088 490.89807 559.797947 475.742113 559.797947 453.99112 C 559.797947 437.428383 551.463502 424.737298 535.040242 424.737298 Z M 613.30271 424.731286 C 620.3836 430.232159 620.42595 457.928904 620.42595 496.110373 C 620.42595 533.107501 622.518031 568.439338 609.728385 572.858072 L 673.998473 572.858072 L 673.998473 546.00299 C 663.292438 560.569783 636.679811 554.341472 636.679811 536.432072 L 636.679811 499.669408 C 649.765905 499.669408 658.786417 507.671224 661.513746 512.889538 L 661.513746 480.058645 C 655.70335 491.270807 648.309071 493.597406 636.679811 493.597406 L 636.679811 458.271581 C 636.679811 434.891368 671.677702 434.717023 674.362681 453.979097 L 674.362681 424.731286 Z M 707.302371 425.091999 C 692.573104 425.302415 677.860776 434.759107 677.860776 455.199509 L 677.860776 537.490164 C 677.860776 590.779495 736.938776 577.54734 736.938776 543.291631 L 736.938776 511.99978 L 711.469594 511.99978 C 714.78135 518.071782 715.018509 530.90114 715.018509 536.221657 C 715.018509 547.217391 698.849347 549.892679 698.849347 533.937141 L 698.849347 462.269483 C 698.603718 445.490318 714.77288 448.478224 714.77288 454.682487 C 714.77288 460.880738 717.15294 475.681994 711.986262 479.938408 L 736.989596 479.938408 L 736.989596 450.390002 C 736.854076 433.881372 722.082459 424.869559 707.336251 425.091999 Z M 525.774101 440.302063 C 529.492415 440.302063 542.36676 442.17777 542.36676 452.181544 L 542.36676 499.627324 C 542.36676 516.478633 529.543235 515.270244 525.774101 515.270244 Z M 798.066507 489.539385 C 800.700666 489.539385 802.826627 492.262768 802.826627 495.539244 C 802.826627 498.821732 800.700666 501.539103 798.066507 501.539103 C 795.440818 501.539103 793.280977 498.839768 793.280977 495.539244 C 793.280977 492.23872 795.432348 489.539385 798.066507 489.539385 Z M 798.066507 489.539385 " transform="matrix(0.461188,0,0,0.649755,-82.594248,-249.186045)"/>
<path style="fill-rule:nonzero;fill:rgb(89.019608%,4.705882%,4.705882%);fill-opacity:1;stroke-width:3.82;stroke-linecap:butt;stroke-linejoin:round;stroke:rgb(0%,0%,0%);stroke-opacity:1;stroke-miterlimit:4;" d="M 589.281892 423.288434 C 584.081334 423.366588 579.465203 426.606993 577.627221 431.470607 L 564.202328 435.059701 L 576.746345 438.131773 C 577.229133 442.760923 580.12586 446.794896 584.360842 448.730723 L 584.360842 452.13946 C 571.588137 454.514154 562.296586 465.630126 562.237296 478.621805 C 562.254236 486.611598 565.828561 494.180558 572.003165 499.2606 L 566.590858 506.498907 L 571.240868 506.949798 L 566.768727 514.091915 L 575.374211 514.091915 L 569.767094 533.768808 L 577.8305 533.768808 L 579.592253 563.449475 C 564.871455 563.118821 553.775802 584.719517 589.392001 565.758038 C 603.680831 580.138462 616.749985 573.759854 598.327813 563.972509 L 600.199675 533.67863 L 607.195866 533.67863 L 603.198043 514.182093 L 610.770191 514.182093 L 606.29805 507.021941 L 610.770191 506.589085 L 606.001601 500.138335 C 614.624024 493.765739 618.630317 482.872206 616.182498 472.429566 C 613.734678 461.992937 605.298594 454.009156 594.736549 452.13946 L 594.736549 448.430129 C 598.564972 446.440195 601.182191 442.706816 601.741209 438.432367 L 615.216922 434.548691 L 600.995852 431.620904 C 599.20869 426.679136 594.541739 423.360576 589.281892 423.288434 Z M 598.810601 470.289335 C 602.418806 473.120932 604.519357 477.449488 604.519357 482.030543 C 604.519357 486.611598 602.418806 490.940154 598.810601 493.77175 Z M 579.549903 470.8785 L 579.549903 493.182586 C 576.365196 490.350989 574.535684 486.292968 574.535684 482.030543 C 574.535684 477.768118 576.365196 473.710097 579.549903 470.8785 Z M 579.549903 470.8785 " transform="matrix(0.461188,0,0,0.649755,-82.594248,-249.186045)"/>
<path style="fill-rule:nonzero;fill:rgb(100%,100%,100%);fill-opacity:1;stroke-width:3.82;stroke-linecap:butt;stroke-linejoin:miter;stroke:rgb(0%,0%,0%);stroke-opacity:1;stroke-miterlimit:4;" d="M 298.253925 559.349371 L 306.5799 571.998372 C 286.133406 599.148036 265.949482 594.488827 247.51884 571.240875 L 255.836345 556.848427 Z M 298.253925 559.349371 " transform="matrix(0.461188,0,0,0.649755,-82.594248,-249.186045)"/>
<path style="fill-rule:nonzero;fill:rgb(100%,100%,100%);fill-opacity:1;stroke-width:3.82;stroke-linecap:butt;stroke-linejoin:miter;stroke:rgb(0%,0%,0%);stroke-opacity:1;stroke-miterlimit:4;" d="M 303.302024 567.591662 C 286.641604 577.030319 266.051121 576.116512 250.296988 565.228992 " transform="matrix(0.461188,0,0,0.649755,-82.594248,-249.186045)"/>
<path style="fill-rule:nonzero;fill:rgb(100%,100%,100%);fill-opacity:1;stroke-width:3.82;stroke-linecap:butt;stroke-linejoin:miter;stroke:rgb(0%,0%,0%);stroke-opacity:1;stroke-miterlimit:4;" d="M 272.759333 563.130845 L 270.226814 573.477296 " transform="matrix(0.461188,0,0,0.649755,-82.594248,-249.186045)"/>
<path style="fill-rule:nonzero;fill:rgb(100%,100%,100%);fill-opacity:1;stroke-width:3.82;stroke-linecap:butt;stroke-linejoin:miter;stroke:rgb(0%,0%,0%);stroke-opacity:1;stroke-miterlimit:4;" d="M 285.261 573.537414 L 283.109629 563.828223 " transform="matrix(0.461188,0,0,0.649755,-82.594248,-249.186045)"/>
<path style="fill-rule:nonzero;fill:rgb(75.294118%,30.196078%,0%);fill-opacity:1;stroke-width:3.82;stroke-linecap:butt;stroke-linejoin:miter;stroke:rgb(0%,0%,0%);stroke-opacity:1;stroke-miterlimit:4;" d="M 267.457136 562.878346 C 253.363115 573.002357 238.998056 583.998091 222.269877 602.761178 L 223.269333 614.622623 L 220.270965 610.07764 L 218.500743 612.350131 L 217.001559 606.001583 L 212.707288 606.999555 L 212.707288 601.697075 L 205.897436 601.198088 L 206.896892 598.667086 L 202.61109 598.667086 L 215.731065 596.400606 C 227.334916 582.6875 240.36172 570.248914 254.59973 559.301275 Z M 267.457136 562.878346 " transform="matrix(0.461188,0,0,0.649755,-82.594248,-249.186045)"/>
<path style="fill-rule:nonzero;fill:rgb(50.196078%,20%,0%);fill-opacity:1;stroke-width:3.82;stroke-linecap:butt;stroke-linejoin:miter;stroke:rgb(0%,0%,0%);stroke-opacity:1;stroke-miterlimit:4;" d="M 235.65242 576.260797 L 238.17647 585.597252 " transform="matrix(0.461188,0,0,0.649755,-82.594248,-249.186045)"/>
<path style="fill-rule:nonzero;fill:rgb(50.196078%,20%,0%);fill-opacity:1;stroke-width:3.96;stroke-linecap:butt;stroke-linejoin:miter;stroke:rgb(0%,0%,0%);stroke-opacity:1;stroke-miterlimit:4;" d="M 246.815833 566.479464 L 249.466932 576.699665 " transform="matrix(0.461188,0,0,0.649755,-82.594248,-249.186045)"/>
<path style="fill-rule:nonzero;fill:rgb(50.196078%,20%,0%);fill-opacity:1;stroke-width:3.82;stroke-linecap:butt;stroke-linejoin:miter;stroke:rgb(0%,0%,0%);stroke-opacity:1;stroke-miterlimit:4;" d="M 260.638814 567.17083 L 258.123235 560.359367 " transform="matrix(0.461188,0,0,0.649755,-82.594248,-249.186045)"/>
<path style="fill-rule:nonzero;fill:rgb(50.196078%,20%,0%);fill-opacity:1;stroke-width:3.82;stroke-linecap:butt;stroke-linejoin:miter;stroke:rgb(0%,0%,0%);stroke-opacity:1;stroke-miterlimit:4;" d="M 228.842569 594.939718 L 225.302124 586.607248 " transform="matrix(0.461188,0,0,0.649755,-82.594248,-249.186045)"/>
<path style="fill-rule:nonzero;fill:rgb(50.196078%,20%,0%);fill-opacity:1;stroke-width:3.82;stroke-linecap:butt;stroke-linejoin:miter;stroke:rgb(0%,0%,0%);stroke-opacity:1;stroke-miterlimit:4;" d="M 222.532446 603.001653 C 221.270421 601.739158 215.959754 596.19019 215.959754 596.19019 " transform="matrix(0.461188,0,0,0.649755,-82.594248,-249.186045)"/>
<path style="fill-rule:nonzero;fill:rgb(75.294118%,30.196078%,0%);fill-opacity:1;stroke-width:3.82;stroke-linecap:butt;stroke-linejoin:miter;stroke:rgb(0%,0%,0%);stroke-opacity:1;stroke-miterlimit:4;" d="M 287.403901 561.86835 C 337.876417 617.147614 359.788214 606.95146 382.809577 592.87163 L 364.378935 592.108121 C 336.800732 602.208085 312.932373 571.018435 299.50748 559.301275 Z M 287.403901 561.86835 " transform="matrix(0.461188,0,0,0.649755,-82.594248,-249.186045)"/>
<path style="fill-rule:nonzero;fill:rgb(61.568627%,24.705882%,0%);fill-opacity:1;stroke-width:3.82;stroke-linecap:butt;stroke-linejoin:miter;stroke:rgb(0%,0%,0%);stroke-opacity:1;stroke-miterlimit:4;" d="M 294.002003 568.679813 C 304.352299 564.140841 304.852027 564.140841 304.852027 564.140841 " transform="matrix(0.461188,0,0,0.649755,-82.594248,-249.186045)"/>
<path style="fill-rule:nonzero;fill:rgb(61.568627%,24.705882%,0%);fill-opacity:1;stroke-width:3.82;stroke-linecap:butt;stroke-linejoin:miter;stroke:rgb(0%,0%,0%);stroke-opacity:1;stroke-miterlimit:4;" d="M 314.152048 573.477296 L 303.047925 577.76978 " transform="matrix(0.461188,0,0,0.649755,-82.594248,-249.186045)"/>
<path style="fill-rule:nonzero;fill:rgb(61.568627%,24.705882%,0%);fill-opacity:1;stroke-width:3.82;stroke-linecap:butt;stroke-linejoin:miter;stroke:rgb(0%,0%,0%);stroke-opacity:1;stroke-miterlimit:4;" d="M 323.00316 581.052268 L 313.66079 587.112246 " transform="matrix(0.461188,0,0,0.649755,-82.594248,-249.186045)"/>
<path style="fill-rule:nonzero;fill:rgb(61.568627%,24.705882%,0%);fill-opacity:1;stroke-width:3.82;stroke-linecap:butt;stroke-linejoin:miter;stroke:rgb(0%,0%,0%);stroke-opacity:1;stroke-miterlimit:4;" d="M 332.828318 588.87974 L 325.002072 594.182221 " transform="matrix(0.461188,0,0,0.649755,-82.594248,-249.186045)"/>
<path style="fill-rule:nonzero;fill:rgb(61.568627%,24.705882%,0%);fill-opacity:1;stroke-width:3.82;stroke-linecap:butt;stroke-linejoin:miter;stroke:rgb(0%,0%,0%);stroke-opacity:1;stroke-miterlimit:4;" d="M 343.940911 593.172224 L 336.868491 600.488686 " transform="matrix(0.461188,0,0,0.649755,-82.594248,-249.186045)"/>
<path style="fill-rule:nonzero;fill:rgb(61.568627%,24.705882%,0%);fill-opacity:1;stroke-width:3.82;stroke-linecap:butt;stroke-linejoin:miter;stroke:rgb(0%,0%,0%);stroke-opacity:1;stroke-miterlimit:4;" d="M 354.502957 594.458767 L 349.996936 603.741115 " transform="matrix(0.461188,0,0,0.649755,-82.594248,-249.186045)"/>
<path style="fill-rule:nonzero;fill:rgb(61.568627%,24.705882%,0%);fill-opacity:1;stroke-width:3.82;stroke-linecap:butt;stroke-linejoin:miter;stroke:rgb(0%,0%,0%);stroke-opacity:1;stroke-miterlimit:4;" d="M 364.887133 600.741185 L 364.133306 592.919725 " transform="matrix(0.461188,0,0,0.649755,-82.594248,-249.186045)"/>
<path style="fill-rule:nonzero;fill:rgb(75.294118%,30.196078%,0%);fill-opacity:1;stroke-width:3.82;stroke-linecap:butt;stroke-linejoin:miter;stroke:rgb(0%,0%,0%);stroke-opacity:1;stroke-miterlimit:4;" d="M 513.806041 582.062265 C 517.202497 578.900014 543.357746 555.748253 569.589225 586.060167 C 577.466292 595.180193 590.476157 594.759362 598.107594 591.609135 L 618.04589 591.609135 C 599.522078 602.610881 583.242807 612.788999 555.706954 588.08016 C 540.232329 574.19271 533.04133 582.681489 533.04133 582.681489 Z M 513.806041 582.062265 " transform="matrix(0.461188,0,0,0.649755,-82.594248,-249.186045)"/>
<path style="fill-rule:nonzero;fill:rgb(75.294118%,30.196078%,0%);fill-opacity:1;stroke-width:3.82;stroke-linecap:butt;stroke-linejoin:miter;stroke:rgb(0%,0%,0%);stroke-opacity:1;stroke-miterlimit:4;" d="M 616.284137 582.212562 C 616.284137 582.212562 620.3836 581.587326 639.932277 582.212562 C 644.429828 579.459119 650.291043 578.208648 664.503643 588.36873 C 676.310773 596.821437 694.859994 615.837023 719.49912 615.512382 C 735.617461 615.289942 757.08882 605.598787 773.147872 589.510988 C 780.093243 582.507144 795.644097 555.928609 797.38044 538.710576 L 789.723592 529.061504 C 787.428232 560.611866 751.151376 611.231921 713.239816 604.270161 C 696.003439 601.10791 666.477144 576.411095 656.160728 573.002357 L 637.738556 572.737834 C 630.107119 573.002357 622.111472 578.900014 616.284137 582.212562 Z M 616.284137 582.212562 " transform="matrix(0.461188,0,0,0.649755,-82.594248,-249.186045)"/>
<path style="fill-rule:nonzero;fill:rgb(61.568627%,24.705882%,0%);fill-opacity:1;stroke-width:3.82;stroke-linecap:butt;stroke-linejoin:miter;stroke:rgb(0%,0%,0%);stroke-opacity:1;stroke-miterlimit:4;" d="M 530.000613 573.230808 L 530.508811 582.062265 " transform="matrix(0.461188,0,0,0.649755,-82.594248,-249.186045)"/>
<path style="fill-rule:nonzero;fill:rgb(61.568627%,24.705882%,0%);fill-opacity:1;stroke-width:3.82;stroke-linecap:butt;stroke-linejoin:miter;stroke:rgb(0%,0%,0%);stroke-opacity:1;stroke-miterlimit:4;" d="M 538.538337 580.300783 L 540.06293 570.002427 " transform="matrix(0.461188,0,0,0.649755,-82.594248,-249.186045)"/>
<path style="fill-rule:nonzero;fill:rgb(61.568627%,24.705882%,0%);fill-opacity:1;stroke-width:3.82;stroke-linecap:butt;stroke-linejoin:miter;stroke:rgb(0%,0%,0%);stroke-opacity:1;stroke-miterlimit:4;" d="M 546.872781 582.320776 L 553.936731 574.240805 " transform="matrix(0.461188,0,0,0.649755,-82.594248,-249.186045)"/>
<path style="fill-rule:nonzero;fill:rgb(61.568627%,24.705882%,0%);fill-opacity:1;stroke-width:3.82;stroke-linecap:butt;stroke-linejoin:miter;stroke:rgb(0%,0%,0%);stroke-opacity:1;stroke-miterlimit:4;" d="M 556.003403 588.36873 L 565.591402 581.557266 " transform="matrix(0.461188,0,0,0.649755,-82.594248,-249.186045)"/>
<path style="fill-rule:nonzero;fill:rgb(61.568627%,24.705882%,0%);fill-opacity:1;stroke-width:3.82;stroke-linecap:butt;stroke-linejoin:miter;stroke:rgb(0%,0%,0%);stroke-opacity:1;stroke-miterlimit:4;" d="M 575.137052 589.378726 L 567.319275 595.691203 " transform="matrix(0.461188,0,0,0.649755,-82.594248,-249.186045)"/>
<path style="fill-rule:nonzero;fill:rgb(61.568627%,24.705882%,0%);fill-opacity:1;stroke-width:3.82;stroke-linecap:butt;stroke-linejoin:miter;stroke:rgb(0%,0%,0%);stroke-opacity:1;stroke-miterlimit:4;" d="M 580.439249 602.508679 L 586.249644 593.172224 " transform="matrix(0.461188,0,0,0.649755,-82.594248,-249.186045)"/>
<path style="fill-rule:nonzero;fill:rgb(61.568627%,24.705882%,0%);fill-opacity:1;stroke-width:3.82;stroke-linecap:butt;stroke-linejoin:miter;stroke:rgb(0%,0%,0%);stroke-opacity:1;stroke-miterlimit:4;" d="M 594.829718 592.661214 L 595.083817 603.272188 " transform="matrix(0.461188,0,0,0.649755,-82.594248,-249.186045)"/>
<path style="fill-rule:nonzero;fill:rgb(61.568627%,24.705882%,0%);fill-opacity:1;stroke-width:3.82;stroke-linecap:butt;stroke-linejoin:miter;stroke:rgb(0%,0%,0%);stroke-opacity:1;stroke-miterlimit:4;" d="M 604.417717 591.398719 L 604.925915 597.957683 " transform="matrix(0.461188,0,0,0.649755,-82.594248,-249.186045)"/>
<path style="fill:none;stroke-width:3.82;stroke-linecap:butt;stroke-linejoin:round;stroke:rgb(0%,0%,0%);stroke-opacity:1;stroke-miterlimit:4;" d="M 634.46068 573.729795 C 634.757129 573.657652 634.706309 577.318889 634.706309 578.28079 L 634.706309 582.278692 " transform="matrix(0.461188,0,0,0.649755,-82.594248,-249.186045)"/>
<path style="fill:none;stroke-width:3.82;stroke-linecap:butt;stroke-linejoin:round;stroke:rgb(0%,0%,0%);stroke-opacity:1;stroke-miterlimit:4;" d="M 644.370538 572.220812 L 641.846489 580.54727 " transform="matrix(0.461188,0,0,0.649755,-82.594248,-249.186045)"/>
<path style="fill:none;stroke-width:4.1;stroke-linecap:butt;stroke-linejoin:round;stroke:rgb(0%,0%,0%);stroke-opacity:1;stroke-miterlimit:4;" d="M 656.287778 573.868068 L 650.638312 580.727627 " transform="matrix(0.461188,0,0,0.649755,-82.594248,-249.186045)"/>
<path style="fill:none;stroke-width:3.82;stroke-linecap:butt;stroke-linejoin:round;stroke:rgb(0%,0%,0%);stroke-opacity:1;stroke-miterlimit:4;" d="M 667.273321 579.290787 L 659.701173 584.587255 " transform="matrix(0.461188,0,0,0.649755,-82.594248,-249.186045)"/>
<path style="fill:none;stroke-width:3.82;stroke-linecap:butt;stroke-linejoin:round;stroke:rgb(0%,0%,0%);stroke-opacity:1;stroke-miterlimit:4;" d="M 676.107494 584.587255 L 668.789445 591.152232 " transform="matrix(0.461188,0,0,0.649755,-82.594248,-249.186045)"/>
<path style="fill:none;stroke-width:3.82;stroke-linecap:butt;stroke-linejoin:round;stroke:rgb(0%,0%,0%);stroke-opacity:1;stroke-miterlimit:4;" d="M 686.000412 591.651218 L 677.420338 597.458697 " transform="matrix(0.461188,0,0,0.649755,-82.594248,-249.186045)"/>
<path style="fill:none;stroke-width:3.51;stroke-linecap:butt;stroke-linejoin:round;stroke:rgb(0%,0%,0%);stroke-opacity:1;stroke-miterlimit:4;" d="M 688.067083 604.931468 L 695.78322 597.849469 " transform="matrix(0.461188,0,0,0.649755,-82.594248,-249.186045)"/>
<path style="fill:none;stroke-width:3.82;stroke-linecap:butt;stroke-linejoin:round;stroke:rgb(0%,0%,0%);stroke-opacity:1;stroke-miterlimit:4;" d="M 706.650184 601.751182 L 699.831863 611.340135 " transform="matrix(0.461188,0,0,0.649755,-82.594248,-249.186045)"/>
<path style="fill:none;stroke-width:3.82;stroke-linecap:butt;stroke-linejoin:round;stroke:rgb(0%,0%,0%);stroke-opacity:1;stroke-miterlimit:4;" d="M 712.003202 614.117625 L 718.313325 605.027658 " transform="matrix(0.461188,0,0,0.649755,-82.594248,-249.186045)"/>
<path style="fill:none;stroke-width:3.82;stroke-linecap:butt;stroke-linejoin:round;stroke:rgb(0%,0%,0%);stroke-opacity:1;stroke-miterlimit:4;" d="M 730.120455 603.001653 L 726.842579 614.3581 " transform="matrix(0.461188,0,0,0.649755,-82.594248,-249.186045)"/>
<path style="fill:none;stroke-width:3.82;stroke-linecap:butt;stroke-linejoin:round;stroke:rgb(0%,0%,0%);stroke-opacity:1;stroke-miterlimit:4;" d="M 743.748627 598.721193 L 743.00327 609.578653 " transform="matrix(0.461188,0,0,0.649755,-82.594248,-249.186045)"/>
<path style="fill:none;stroke-width:3.82;stroke-linecap:butt;stroke-linejoin:round;stroke:rgb(0%,0%,0%);stroke-opacity:1;stroke-miterlimit:4;" d="M 755.360948 590.641222 L 758.791283 600.638983 " transform="matrix(0.461188,0,0,0.649755,-82.594248,-249.186045)"/>
<path style="fill:none;stroke-width:4.27;stroke-linecap:butt;stroke-linejoin:round;stroke:rgb(0%,0%,0%);stroke-opacity:1;stroke-miterlimit:4;" d="M 766.168622 581.521195 L 771.106611 590.328604 " transform="matrix(0.461188,0,0,0.649755,-82.594248,-249.186045)"/>
<path style="fill:none;stroke-width:3.82;stroke-linecap:butt;stroke-linejoin:round;stroke:rgb(0%,0%,0%);stroke-opacity:1;stroke-miterlimit:4;" d="M 780.347342 578.527277 L 774.553886 569.43731 " transform="matrix(0.461188,0,0,0.649755,-82.594248,-249.186045)"/>
<path style="fill:none;stroke-width:3.82;stroke-linecap:butt;stroke-linejoin:round;stroke:rgb(0%,0%,0%);stroke-opacity:1;stroke-miterlimit:4;" d="M 787.419762 564.651851 L 781.363738 557.581877 " transform="matrix(0.461188,0,0,0.649755,-82.594248,-249.186045)"/>
<path style="fill:none;stroke-width:3.82;stroke-linecap:butt;stroke-linejoin:round;stroke:rgb(0%,0%,0%);stroke-opacity:1;stroke-miterlimit:4;" d="M 787.157193 546.219418 L 793.890815 550.968806 " transform="matrix(0.461188,0,0,0.649755,-82.594248,-249.186045)"/>
<path style="fill-rule:nonzero;fill:rgb(75.294118%,30.196078%,0%);fill-opacity:1;stroke-width:3.82;stroke-linecap:butt;stroke-linejoin:round;stroke:rgb(0%,0%,0%);stroke-opacity:1;stroke-miterlimit:4;" d="M 796.872242 506.270455 C 802.928266 515.318339 805.985923 519.508622 818.995788 531.442209 C 816.920647 531.045425 814.904795 530.372094 812.999054 529.440252 C 811.262711 528.568529 809.746587 526.30205 808.323633 525.231934 C 810.246315 528.478351 811.5761 532.043398 812.253697 535.758742 C 809.509428 533.197679 807.247948 531.111556 804.037832 528.087579 C 806.316252 533.492262 805.587835 535.139518 806.180732 538.440041 C 799.176072 531.808934 792.857479 524.949376 788.690257 517.380415 Z M 796.872242 506.270455 " transform="matrix(0.461188,0,0,0.649755,-82.594248,-249.186045)"/>
<path style="fill-rule:nonzero;fill:rgb(61.568627%,24.705882%,0%);fill-opacity:1;stroke-width:3.82;stroke-linecap:butt;stroke-linejoin:miter;stroke:rgb(0%,0%,0%);stroke-opacity:1;stroke-miterlimit:4;" d="M 805.943573 517.188035 L 791.536164 518.192019 " transform="matrix(0.461188,0,0,0.649755,-82.594248,-249.186045)"/>
<path style="fill-rule:nonzero;fill:rgb(61.568627%,24.705882%,0%);fill-opacity:1;stroke-width:3.82;stroke-linecap:butt;stroke-linejoin:miter;stroke:rgb(0%,0%,0%);stroke-opacity:1;stroke-miterlimit:4;" d="M 811.999598 524.552592 L 798.278256 529.04948 " transform="matrix(0.461188,0,0,0.649755,-82.594248,-249.186045)"/>
<path style="fill-rule:nonzero;fill:rgb(75.294118%,30.196078%,0%);fill-opacity:1;stroke-width:3.82;stroke-linecap:butt;stroke-linejoin:miter;stroke:rgb(0%,0%,0%);stroke-opacity:1;stroke-miterlimit:4;" d="M 795.322238 489.509325 C 799.091372 487.657665 804.31734 495.040258 800.497387 499.507087 C 796.220055 504.508974 790.28261 520.30219 799.59957 535.379993 C 802.657227 540.321761 795.601747 545.017041 789.427143 537.171534 C 779.737504 524.877233 784.861833 494.661509 795.322238 489.509325 Z M 795.322238 489.509325 " transform="matrix(0.461188,0,0,0.649755,-82.594248,-249.186045)"/>
<path style="fill-rule:nonzero;fill:rgb(61.568627%,24.705882%,0%);fill-opacity:1;stroke-width:3.82;stroke-linecap:butt;stroke-linejoin:miter;stroke:rgb(0%,0%,0%);stroke-opacity:1;stroke-miterlimit:4;" d="M 790.502829 494.000202 L 798.176616 502.212434 " transform="matrix(0.461188,0,0,0.649755,-82.594248,-249.186045)"/>
<path style="fill-rule:nonzero;fill:rgb(61.568627%,24.705882%,0%);fill-opacity:1;stroke-width:3.82;stroke-linecap:butt;stroke-linejoin:miter;stroke:rgb(0%,0%,0%);stroke-opacity:1;stroke-miterlimit:4;" d="M 794.610761 512.540849 L 786.606645 507.719319 " transform="matrix(0.461188,0,0,0.649755,-82.594248,-249.186045)"/>
<path style="fill-rule:nonzero;fill:rgb(61.568627%,24.705882%,0%);fill-opacity:1;stroke-width:3.89;stroke-linecap:butt;stroke-linejoin:miter;stroke:rgb(0%,0%,0%);stroke-opacity:1;stroke-miterlimit:4;" d="M 795.110489 525.171815 L 785.361561 522.917359 " transform="matrix(0.461188,0,0,0.649755,-82.594248,-249.186045)"/>
<path style="fill-rule:nonzero;fill:rgb(61.568627%,24.705882%,0%);fill-opacity:1;stroke-width:3.82;stroke-linecap:butt;stroke-linejoin:miter;stroke:rgb(0%,0%,0%);stroke-opacity:1;stroke-miterlimit:4;" d="M 797.998747 533.420119 L 787.470582 532.87905 " transform="matrix(0.461188,0,0,0.649755,-82.594248,-249.186045)"/>
<path style="fill-rule:nonzero;fill:rgb(100%,87.843137%,12.156863%);fill-opacity:1;stroke-width:3.82;stroke-linecap:butt;stroke-linejoin:round;stroke:rgb(0%,0%,0%);stroke-opacity:1;stroke-miterlimit:4;" d="M 278.324099 445.532401 C 251.559013 445.532401 229.367707 464.529951 225.319064 489.437183 L 331.422304 489.437183 C 327.263552 464.560011 305.072246 445.532401 278.324099 445.532401 Z M 278.324099 445.532401 " transform="matrix(0.461188,0,0,0.649755,-82.594248,-249.186045)"/>
<path style="fill-rule:nonzero;fill:rgb(92.156863%,0%,0%);fill-opacity:1;stroke-width:3.82;stroke-linecap:butt;stroke-linejoin:miter;stroke:rgb(0%,0%,0%);stroke-opacity:1;stroke-miterlimit:4;" d="M 229.088198 477.058716 C 261.78226 471.527783 296.771681 471.557843 327.82257 478.399366 C 329.609732 481.12876 330.16028 484.489403 331.058096 487.657665 L 226.055951 487.158679 C 226.38628 483.792025 226.775898 480.431382 229.088198 477.058716 Z M 229.088198 477.058716 " transform="matrix(0.461188,0,0,0.649755,-82.594248,-249.186045)"/>
<path style="fill-rule:nonzero;fill:rgb(100%,87.843137%,12.156863%);fill-opacity:1;stroke-width:3.82;stroke-linecap:butt;stroke-linejoin:miter;stroke:rgb(0%,0%,0%);stroke-opacity:1;stroke-miterlimit:4;" d="M 191.862706 497.000132 C 265.856312 512.390552 330.380499 509.240325 362.862811 495.491149 C 312.813793 472.850397 225.319064 476.577765 191.862706 497.000132 Z M 191.862706 497.000132 " transform="matrix(0.461188,0,0,0.649755,-82.594248,-249.186045)"/>
<path style="fill-rule:nonzero;fill:rgb(100%,100%,100%);fill-opacity:1;stroke-width:3.06;stroke-linecap:butt;stroke-linejoin:miter;stroke:rgb(0%,0%,0%);stroke-opacity:1;stroke-miterlimit:4;" d="M 260.139087 550.000892 L 253.828963 559.078836 C 269.557687 563.972509 286.040237 564.567685 301.77743 559.337347 L 296.229604 549.00292 Z M 260.139087 550.000892 " transform="matrix(0.461188,0,0,0.649755,-82.594248,-249.186045)"/>
<path style="fill-rule:nonzero;fill:rgb(100%,100%,100%);fill-opacity:1;stroke-width:3.06;stroke-linecap:butt;stroke-linejoin:miter;stroke:rgb(0%,0%,0%);stroke-opacity:1;stroke-miterlimit:4;" d="M 273.767259 563.130845 L 274.266987 551.768386 " transform="matrix(0.461188,0,0,0.649755,-82.594248,-249.186045)"/>
<path style="fill-rule:nonzero;fill:rgb(100%,100%,100%);fill-opacity:1;stroke-width:3.06;stroke-linecap:butt;stroke-linejoin:miter;stroke:rgb(0%,0%,0%);stroke-opacity:1;stroke-miterlimit:4;" d="M 282.347332 563.130845 L 282.601431 552.279396 " transform="matrix(0.461188,0,0,0.649755,-82.594248,-249.186045)"/>
<path style="fill-rule:nonzero;fill:rgb(100%,100%,100%);fill-opacity:1;stroke-width:3.06;stroke-linecap:butt;stroke-linejoin:miter;stroke:rgb(0%,0%,0%);stroke-opacity:1;stroke-miterlimit:4;" d="M 291.181505 552.778382 L 293.451455 562.120849 " transform="matrix(0.461188,0,0,0.649755,-82.594248,-249.186045)"/>
<path style="fill-rule:nonzero;fill:rgb(100%,100%,100%);fill-opacity:1;stroke-width:3.06;stroke-linecap:butt;stroke-linejoin:miter;stroke:rgb(0%,0%,0%);stroke-opacity:1;stroke-miterlimit:4;" d="M 262.663136 561.621862 L 265.941012 550.75839 " transform="matrix(0.461188,0,0,0.649755,-82.594248,-249.186045)"/>
<path style="fill-rule:nonzero;fill:rgb(100%,100%,100%);fill-opacity:1;stroke-width:3.82;stroke-linecap:butt;stroke-linejoin:miter;stroke:rgb(0%,0%,0%);stroke-opacity:1;stroke-miterlimit:4;" d="M 224.802396 499.272623 C 227.377265 491.270807 239.082756 488.589507 278.30716 488.270877 C 317.540033 487.952248 330.820937 490.122537 332.311651 498.052211 C 334.463022 509.372587 324.417644 554.840458 278.30716 554.840458 C 231.934106 554.798375 221.54146 509.408658 224.802396 499.272623 Z M 224.802396 499.272623 " transform="matrix(0.461188,0,0,0.649755,-82.594248,-249.186045)"/>
<path style=" stroke:none;fill-rule:nonzero;fill:rgb(0%,0%,0%);fill-opacity:0.988235;" d="M 42.5 87.03125 C 42.496094 93.097656 39.003906 98.011719 34.695312 98.011719 C 30.390625 98.007812 26.898438 93.089844 26.902344 87.019531 C 26.902344 80.953125 30.394531 76.035156 34.699219 76.035156 C 39.007812 76.035156 42.5 80.957031 42.5 87.03125 Z M 42.5 87.03125 "/>
<path style=" stroke:none;fill-rule:nonzero;fill:rgb(0%,0%,0%);fill-opacity:0.988235;" d="M 64.617188 87.03125 C 64.613281 93.097656 61.121094 98.011719 56.816406 98.011719 C 52.507812 98.007812 49.019531 93.089844 49.019531 87.019531 C 49.019531 80.953125 52.511719 76.035156 56.820312 76.035156 C 61.128906 76.035156 64.621094 80.957031 64.617188 87.03125 Z M 64.617188 87.03125 "/>
<path style=" stroke:none;fill-rule:nonzero;fill:rgb(0%,0%,0%);fill-opacity:0.988235;" d="M 48.898438 100.804688 C 48.898438 103.253906 47.492188 105.238281 45.753906 105.234375 C 44.015625 105.234375 42.609375 103.25 42.609375 100.800781 C 42.609375 98.351562 44.019531 96.371094 45.757812 96.375 C 46.59375 96.375 47.390625 96.839844 47.980469 97.671875 C 48.570312 98.503906 48.902344 99.628906 48.898438 100.804688 Z M 48.898438 100.804688 "/>
</g>
</svg>
